<svg width="512" height="512" viewBox="0 0 512 512" fill="none" xmlns="http://www.w3.org/2000/svg">
<g clip-path="url(#clip0_6_932)">
<path d="M457.79 411.849C411.259 471.484 338.715 509.831 257.213 509.831C116.791 509.831 2.95605 395.997 2.95605 255.574C2.95605 196.168 23.3293 141.521 57.47 98.2378C76.4027 132.965 120.868 168.848 209.326 155.239C327.904 136.997 389.473 201.986 405.435 236.761L457.79 411.849Z" fill="#FCC604"/>
<path d="M508 297.681C497.769 188.125 367.885 96.0388 253.223 227.64C149.543 346.635 54.7695 326.216 5.448 291.312C22.8208 414.813 128.921 509.831 257.213 509.831C383.291 509.831 487.936 418.065 508 297.681Z" fill="#05BCF2"/>
<mask id="mask0_6_932" style="mask-type:alpha" maskUnits="userSpaceOnUse" x="12" y="-57" width="289" height="263">
<ellipse cx="156.309" cy="74.2877" rx="144.231" ry="131.119" fill="#D9D9D9"/>
</mask>
<g mask="url(#mask0_6_932)">
<path d="M457.789 411.849C411.259 471.485 338.714 509.832 257.213 509.832C116.791 509.832 2.95581 395.997 2.95581 255.574C2.95581 196.168 23.3291 141.521 57.4698 98.2379C76.4024 132.965 120.868 168.849 209.326 155.24C327.903 136.997 389.472 201.986 405.435 236.762L457.789 411.849Z" fill="#F77D0D"/>
</g>
<circle cx="184.243" cy="110.773" r="109.456" fill="#F11B73"/>
<path d="M223.885 507.667C202.072 467.83 191.106 417.785 195.57 364.513C199.159 321.699 212.228 282.599 231.829 250.391C238.91 243.448 246.045 235.878 253.223 227.64C367.885 96.0389 497.769 188.125 508 297.681C487.936 418.065 383.291 509.831 257.213 509.831C245.917 509.831 234.792 509.095 223.885 507.667Z" fill="#2467CF"/>
<path d="M435.42 180.138C475.33 203.844 503.458 249.041 508 297.682C490.915 400.19 412.503 481.949 311.751 503.969C283.877 469.417 266.335 419.206 266.335 363.32C266.335 259.105 327.336 174.622 402.585 174.622C413.905 174.622 424.904 176.534 435.42 180.138Z" fill="#483183"/>
<path d="M470.818 393.542C445.512 344.125 394.078 310.302 334.745 310.302C250.365 310.302 181.962 378.705 181.962 463.085C181.962 475.757 183.505 488.069 186.413 499.844C208.888 506.346 232.643 509.831 257.213 509.831C346.777 509.831 425.525 463.522 470.818 393.542Z" fill="#0BC786"/>
<path d="M309.661 73.9458C338.896 70.8873 362.129 47.6551 365.187 18.4194H365.871C368.929 47.6551 392.162 70.8873 421.397 73.9458V74.6294C392.162 77.6879 368.929 100.92 365.871 130.156H365.187C362.129 100.92 338.896 77.6879 309.661 74.6294V73.9458Z" fill="#F11B73"/>
<path d="M352.987 254.225C370.887 252.352 385.111 238.128 386.983 220.229H387.402C389.274 238.128 403.498 252.352 421.397 254.225V254.643C403.498 256.516 389.274 270.74 387.402 288.639H386.983C385.111 270.74 370.887 256.516 352.987 254.643V254.225Z" fill="white"/>
</g>
<defs>
<clipPath id="clip0_6_932">
<rect width="512" height="512" fill="white"/>
</clipPath>
</defs>
</svg>
